<svg xmlns="http://www.w3.org/2000/svg" version="1.1" xmlns:xlink="http://www.w3.org/1999/xlink" width="512" height="512" x="0" y="0" viewBox="0 0 512 512" style="enable-background:new 0 0 512 512" xml:space="preserve" class=""><g><path fill="#081826" d="M512 256c0 3-.05 6-.16 8.95-3.37 98.29-62.17 182.53-146.12 222.41A254.72 254.72 0 0 1 256 512C114.62 512 0 397.38 0 256S114.62 0 256 0c116.34 0 214.57 77.62 245.7 183.9A255.7 255.7 0 0 1 512 256z" opacity="1" data-original="#ff5722" class=""></path><path fill="#081826" d="M512 256c0 3-.05 6-.16 8.95-3.37 98.29-62.17 182.53-146.12 222.41l-200.05-89.17L195 131l151.33-17.19L501.7 183.9A255.7 255.7 0 0 1 512 256z" opacity="1" data-original="#d84315" class=""></path><path fill="#d98977" d="M329.54 277.68H215.08v120.51h-49.41V113.81h180.66v39.85H215.08v84.57h114.46z" opacity="1" data-original="#fafafa" class=""></path></g></svg>